<?xml version="1.0" encoding="UTF-8" standalone="no"?>
<!-- Created with Inkscape (http://www.inkscape.org/) -->

<svg
   xmlns:dc="http://purl.org/dc/elements/1.1/"
   xmlns:cc="http://creativecommons.org/ns#"
   xmlns:rdf="http://www.w3.org/1999/02/22-rdf-syntax-ns#"
   xmlns:svg="http://www.w3.org/2000/svg"
   xmlns="http://www.w3.org/2000/svg"
   xmlns:sodipodi="http://sodipodi.sourceforge.net/DTD/sodipodi-0.dtd"
   xmlns:inkscape="http://www.inkscape.org/namespaces/inkscape"
   width="3000"
   height="3829.3867"
   viewBox="0 0 3000 3829.3867"
   id="svg2"
   version="1.1"
   inkscape:version="0.91 r13725"
   sodipodi:docname="Virgin Mobile.svg">
  <title
     id="title9788">Unimarc</title>
  <defs
     id="defs4" />
  <sodipodi:namedview
     id="base"
     pagecolor="#ffffff"
     bordercolor="#666666"
     borderopacity="1.0"
     inkscape:pageopacity="0.0"
     inkscape:pageshadow="2"
     inkscape:zoom="0.10225784"
     inkscape:cx="1642.9887"
     inkscape:cy="1244.1476"
     inkscape:document-units="px"
     inkscape:current-layer="layer1"
     showgrid="false"
     fit-margin-top="20"
     fit-margin-left="20"
     fit-margin-right="20"
     fit-margin-bottom="20"
     units="px"
     borderlayer="false"
     inkscape:showpageshadow="false"
     inkscape:window-width="1366"
     inkscape:window-height="715"
     inkscape:window-x="-8"
     inkscape:window-y="-8"
     inkscape:window-maximized="1" />
  <metadata
     id="metadata7">
    <rdf:RDF>
      <cc:Work
         rdf:about="">
        <dc:format>image/svg+xml</dc:format>
        <dc:type
           rdf:resource="http://purl.org/dc/dcmitype/StillImage" />
        <dc:title>Unimarc</dc:title>
      </cc:Work>
    </rdf:RDF>
  </metadata>
  <g
     inkscape:label="Capa 1"
     inkscape:groupmode="layer"
     id="layer1"
     transform="translate(-1474.1898,3177.9919)">
    <g
       id="g9782"
       transform="matrix(1.0800771,0,0,1.0800771,-119.65032,-50.560243)">
      <path
         id="path9776"
         d="m 4234.7349,-821.65287 c 0,378.27279 -306.8792,684.96348 -685.0263,684.96348 l -1370.3669,0 c -378.3357,0 -685.152,-306.69069 -685.152,-684.96348 l 0,-1370.24123 c 0,-378.3356 306.8163,-685.152 685.152,-685.152 l 1370.3669,0 c 378.1471,0 685.0263,306.8164 685.0263,685.152 l 0,1370.24123 z"
         style="fill:#e71823;fill-opacity:1;fill-rule:nonzero;stroke:none"
         inkscape:connector-curvature="0" />
      <path
         d="m 4165.9758,483.01433 c -20.7394,-7.29018 -24.7616,10.55821 -24.7616,10.55821 l 0,-0.12569 c -1.9481,7.60442 -4.5248,14.95745 -7.6044,21.99625 -7.0388,16.0887 -37.2051,81.38616 -120.1624,81.38616 -85.0941,0 -156.9904,-61.52668 -156.9904,-183.13456 0,-89.99612 40.096,-187.28243 156.9904,-187.28243 70.3252,0 103.6967,41.98143 110.5469,55.30488 5.9077,11.87798 11.1867,28.09236 34.2513,19.41955 5.0278,-2.01108 16.4658,-10.11828 8.7357,-24.38442 l -5.6561,-9.86689 c -10.3068,-16.84285 -53.0424,-74.59874 -147.8777,-74.59874 -119.8482,0 -196.6465,85.03125 -196.6465,221.40805 0,127.13837 76.2327,216.38033 196.6465,216.38033 109.2271,0 145.6781,-76.86121 155.1051,-97.47484 4.7134,-10.24398 8.3585,-21.17926 11.3123,-32.74301 1.9483,-12.88352 -13.889,-16.84285 -13.889,-16.84285 m -525.0823,-50.90562 -155.7963,0 0,179.30093 c 0,11.12382 -8.9242,19.98517 -19.9851,19.98517 -10.9354,0 -19.7339,-8.86135 -19.7339,-19.98517 l 0,-403.977 c 0,-8.86135 5.9704,-14.58037 15.0832,-14.58037 l 176.0329,0 c 63.0978,0 126.887,39.27903 126.887,116.58016 0,97.22347 -81.2605,105.64489 -81.2605,105.64489 l 0,1.19408 c 22.939,1.63401 73.1533,19.35671 73.1533,94.26968 0,78.68376 11.5637,100.1144 11.5637,110.23268 0,4.90202 -3.7078,10.62105 -16.4657,10.62105 -24.573,0 -27.3382,-13.13491 -29.6007,-49.71155 -0.3142,-5.97041 -1.194,-30.22914 -2.7024,-48.64315 -5.5932,-72.46196 -27.841,-100.36578 -77.1755,-100.9314 m 82.706,-116.8944 c 0,-55.61911 -35.5711,-88.42496 -90.059,-88.42496 l -148.4433,0 0,171.44512 148.4433,0 c 50.9056,0 90.059,-32.17738 90.059,-83.02016 M 2408.7261,589.22484 c 0,25.13858 17.2199,41.73004 42.3586,41.73004 25.327,0 42.3585,-16.59146 42.3585,-41.73004 l 0,-352.94568 c 0,-25.13858 -17.2829,-43.99251 -42.3585,-43.99251 -25.2644,0 -42.3586,18.85393 -42.3586,43.99251 l 0,352.94568 z M 2153.0669,192.28665 c -113.1864,0 -175.5301,51.84832 -175.5301,165.41186 l 0,229.76663 c 0,25.45281 16.9685,42.60989 42.2328,42.60989 24.8872,0 41.9814,-17.15708 41.9814,-42.60989 0,0 0.5028,-207.64468 0.5028,-229.76663 0,-62.78361 28.4695,-98.10331 91.0645,-98.10331 62.9721,0 90.9387,35.3197 90.8131,98.10331 0,0 -0.1257,191.11606 -0.1257,229.76663 0,25.45281 17.2198,42.60989 42.3585,42.60989 25.327,0 42.3584,-17.15708 42.3584,-42.60989 l 0,-229.76663 c 0,-113.56354 -62.3437,-165.41186 -175.6559,-165.41186 m -428.3613,437.97692 c 113.2493,0 175.7815,-51.72263 175.7815,-164.84624 l 0,-229.13817 c 0,-25.13858 -17.0942,-43.99251 -42.2328,-43.99251 -25.0757,0 -42.1071,18.85393 -42.2328,43.99251 l 0,229.13817 c 0,62.59506 -28.7208,97.66338 -91.3159,97.66338 -63.0978,0 -91.0016,-35.06832 -90.8759,-97.66338 0,0 0.1257,-190.55044 0.1257,-229.13817 0,-25.13858 -17.2827,-43.99251 -42.3585,-43.99251 -25.3899,0 -42.547,18.85393 -42.547,43.99251 l 0,229.13817 c 0,113.12361 62.4695,164.84624 175.6559,164.84624 m 1241.9086,-437.4113 c -25.7671,0 -33.7486,11.75228 -35.6968,15.8373 l -137.2567,371.35969 -137.6966,-371.1083 c -1.5712,-3.58225 -9.1755,-16.08869 -36.0738,-16.08869 -27.5268,0 -28.7208,21.30494 -28.7208,21.30494 l 0,397.31527 c 0,11.06098 8.7985,19.92233 19.8594,19.92233 11.061,0 19.9224,-8.86135 19.9224,-19.92233 l 0,-362.05841 0.9427,0 135.874,363.69242 c 0,0 6.4103,18.28832 25.5785,18.28832 18.8539,0 26.1441,-18.03693 26.1441,-18.16263 l 135.1199,-363.81811 1.2569,0 0,362.05841 c 0,11.06098 8.7985,19.92233 19.8595,19.92233 10.9353,0 19.7338,-8.86135 19.7338,-19.92233 l 0,-397.31527 c 0,0 -1.0684,-21.30494 -28.8465,-21.30494 m 395.9955,423.3337 c 0,0 5.7819,15.20884 26.5212,15.20884 20.6136,0 15.963,-15.20884 15.963,-15.20884 L 3250.6801,209.69512 c -0.1257,-0.37708 -6.7245,-16.84285 -28.7208,-16.84285 -22.2476,0 -28.9722,16.90569 -28.9722,16.90569 l 0,-0.0628 -158.3731,406.49085 c -0.1257,0.62846 -4.7763,15.20884 15.2717,15.20884 20.865,0 26.5841,-15.20884 26.5841,-15.20884 l 48.0146,-128.33252 189.5449,0 48.5804,128.33252 z m -225.8702,-162.14385 83.5229,-221.40805 80.5063,221.40805 -164.0292,0 z"
         style="fill:#000000;fill-opacity:1;fill-rule:nonzero;stroke:none"
         id="path8997"
         inkscape:connector-curvature="0" />
      <g
         transform="matrix(62.846452,0,0,-62.846452,4234.7349,-863.38945)"
         id="g8999">
        <path
           inkscape:connector-curvature="0"
           id="path9001"
           style="fill:#ffffff;fill-opacity:1;fill-rule:nonzero;stroke:none"
           d="m 0,0 c -0.893,-1.021 -3.268,-2.211 -5.949,-2.211 -4.102,0 -8.233,2.442 -8.649,7.014 l -0.314,0 c -2.088,-6.603 -6.719,-7.645 -9.25,-7.645 -9.543,0 -9.318,12.238 -8.752,17.901 0.133,1.332 0.301,6.523 2.904,6.523 2.082,0 1.819,-2.143 1.739,-4.166 -0.198,-4.847 -1.524,-16.623 5.353,-16.623 8.381,0 7.408,10.713 8.387,15.813 0.404,2.098 3.783,2.044 3.664,-0.619 -0.121,-2.744 -0.272,-4.928 -0.406,-7.839 C -11.715,-1.377 -3.988,-1.629 0,0.945 L 0,0 Z" />
      </g>
    </g>
  </g>
</svg>
